<?xml version="1.0" encoding="UTF-8"?>
<svg width="45px" height="41px" viewBox="0 0 45 41" version="1.1" xmlns="http://www.w3.org/2000/svg" xmlns:xlink="http://www.w3.org/1999/xlink">
    <!-- Generator: Sketch 42 (36781) - http://www.bohemiancoding.com/sketch -->
    <title>line-chart (1)</title>
    <desc>Created with Sketch.</desc>
    <defs></defs>
    <g id="Page-1" stroke="none" stroke-width="1" fill="none" fill-rule="evenodd">
        <g id="experiment-edit" transform="translate(-146.000000, -12.000000)" fill-rule="nonzero">
            <g id="line-chart-(1)" transform="translate(146.000000, 12.000000)">
                <g id="Layer_1">
                    <ellipse id="Oval" fill="#4BE4C5" cx="20.2278516" cy="20.5000887" rx="20.2269727" ry="20.4235022"></ellipse>
                    <path d="M39.6557227,14.8203463 L36.1275293,21.0570498 L31.6259473,18.7795087 L24.8043164,30.2561364 L20.1445313,25.551342 L15.6510352,27.8148615 L8.98813477,21.0973398 L4.49850586,25.6308571 L0.0187207031,21.2337403 C0.0100195313,20.9897814 0.000263671875,20.7461775 0.000263671875,20.4999113 C0.000263671875,31.7793485 9.05642578,40.9235909 20.2274121,40.9235909 C31.3986621,40.9235909 40.4545605,31.7794372 40.4545605,20.4999113 C40.4544727,18.5282727 40.172168,16.6241688 39.6557227,14.8203463 Z" id="Shape" fill="#2DAF94"></path>
                    <path d="M0.03515625,21.6872251 L0.03515625,20.5351429 L2.21748047,20.5351429 L2.21748047,22.738316 L0.121728516,22.738316 C0.124277344,22.7618333 0.127089844,22.7852619 0.129726562,22.8087792 L2.21748047,22.8087792 L2.21748047,25.0021017 L0.494472656,25.0021017 C0.499658203,25.0255303 0.504404297,25.0491364 0.509677734,25.0725649 L2.21748047,25.0725649 L2.21748047,27.2760043 L1.14178711,27.2760043 C1.14996094,27.2995216 1.15813477,27.3229502 1.16639648,27.3464675 L2.21748047,27.3464675 L2.21748047,29.53979 L2.08617187,29.53979 C2.09768555,29.5633074 2.10928711,29.5867359 2.12080078,29.6102532 L2.21739258,29.6102532 L2.21739258,29.8061126 C2.24015625,29.8509286 2.2640625,29.8950346 2.28717773,29.9395844 L2.28717773,29.6102532 L4.45913086,29.6102532 L4.45913086,31.8131602 L3.38581055,31.8131602 C3.4012793,31.8365887 3.4162207,31.8602835 3.43168945,31.8836234 L4.45913086,31.8836234 L4.45913086,33.2906688 C4.48242187,33.3198658 4.50544922,33.3490628 4.52891602,33.378171 L4.52891602,31.8837121 L6.71088867,31.8837121 L6.71088867,34.0770346 L5.11848633,34.0770346 C5.13922852,34.1005519 5.15953125,34.1240693 5.18036133,34.1474978 L6.71106445,34.1474978 L6.71106445,35.6930736 C6.73417969,35.7141061 6.75755859,35.7346948 6.78084961,35.7555498 L6.78084961,34.1474978 L8.95306641,34.1474978 L8.95306641,36.3509372 L7.47316406,36.3509372 C7.50199219,36.3745433 7.5309082,36.3978831 7.55982422,36.4214004 L8.95306641,36.4214004 L8.95306641,37.4586472 C8.97618164,37.474355 8.99964844,37.4893528 9.02285156,37.5049719 L9.02285156,36.4214004 L11.2048242,36.4214004 L11.2048242,38.6147229 L10.8791895,38.6147229 C10.9233105,38.6380628 10.9670801,38.6621126 11.011377,38.6851861 L11.2048242,38.6851861 L11.2048242,38.7824502 C11.2281152,38.7941645 11.2512305,38.8058788 11.2746094,38.8174156 L11.2746094,38.6850974 L13.4470898,38.6850974 L13.4470898,39.7462165 C13.4703809,39.7545584 13.493584,39.7628117 13.516875,39.7710649 L13.516875,38.6850974 L15.698584,38.6850974 L15.698584,40.4091385 C15.7217871,40.4144632 15.7450781,40.4192554 15.7683691,40.4244913 L15.7683691,38.6850974 L17.9408496,38.6850974 L17.9408496,40.7928701 C17.9641406,40.7955325 17.9872559,40.7983723 18.0106348,40.8009459 L18.0106348,38.6850974 L20.1926074,38.6850974 L20.1926074,40.8882706 L19.0516113,40.8882706 C19.4408789,40.9108117 19.8326953,40.9234134 20.2275,40.9234134 C20.6223047,40.9234134 21.0141211,40.9107229 21.4033887,40.8882706 L20.2623926,40.8882706 L20.2623926,38.6850974 L22.4446289,38.6850974 L22.4446289,40.8009459 C22.4679199,40.7983723 22.491123,40.7955325 22.5144141,40.7928701 L22.5144141,38.6850974 L24.6863672,38.6850974 L24.6863672,40.4245801 C24.7095703,40.4193442 24.7329492,40.4145519 24.7561523,40.4092273 L24.7561523,38.6850974 L26.938125,38.6850974 L26.938125,39.7710649 C26.961416,39.7628117 26.9846191,39.7545584 27.0079102,39.7462165 L27.0079102,38.6850974 L29.1798633,38.6850974 L29.1798633,38.8176818 C29.2031543,38.8060563 29.2263574,38.794342 29.2496484,38.7827165 L29.2496484,38.6851861 L29.443623,38.6851861 C29.4879199,38.6622013 29.5316895,38.6380628 29.5758105,38.6147229 L29.2496484,38.6147229 L29.2496484,36.4214004 L31.4318848,36.4214004 L31.4318848,37.5052381 C31.4550879,37.489619 31.4785547,37.4745325 31.5016699,37.4589134 L31.5016699,36.4214892 L32.8951758,36.4214892 C32.9240918,36.3979719 32.9530078,36.3747208 32.9818359,36.351026 L31.5017578,36.351026 L31.5017578,34.1475866 L33.6739746,34.1475866 L33.6739746,35.7559048 C33.6971777,35.734961 33.7205566,35.714461 33.7437598,35.6934286 L33.7437598,34.1475866 L35.2747266,34.1475866 C35.2955566,34.1242468 35.3159473,34.1006407 35.3366016,34.0771234 L33.7437598,34.0771234 L33.7437598,31.8838009 L35.9257324,31.8838009 L35.9257324,33.3786147 C35.9491113,33.3495065 35.9722266,33.3203095 35.9955176,33.2911126 L35.9955176,31.8837121 L37.0233105,31.8837121 C37.0388672,31.8603723 37.0537207,31.8366775 37.0691895,31.8132489 L35.995166,31.8132489 L35.995166,29.6101645 L38.1673828,29.6101645 L38.1673828,29.9394957 C38.190498,29.8949459 38.2143164,29.8507511 38.237168,29.8060238 L38.237168,29.6101645 L38.3337598,29.6101645 C38.3453613,29.5866472 38.3569629,29.5633074 38.3683887,29.5397013 L38.2370801,29.5397013 L38.2370801,27.3463788 L39.2881641,27.3463788 C39.2964258,27.3228615 39.3045996,27.2994329 39.3127734,27.2759156 L38.2370801,27.2759156 L38.2370801,25.0724762 L39.9448828,25.0724762 C39.9501562,25.0490476 39.9549023,25.0255303 39.9600879,25.002013 L38.2370801,25.002013 L38.2370801,22.8086905 L40.324834,22.8086905 C40.3274707,22.7851732 40.3302832,22.7618333 40.332832,22.7382273 L38.2370801,22.7382273 L38.2370801,20.5350541 L40.4193164,20.5350541 L40.4193164,21.6871364 C40.4416406,21.2940866 40.4541211,20.8984632 40.4541211,20.4998225 C40.4541211,20.1010931 40.4415527,19.7055584 40.4193164,19.3125087 L40.4193164,20.4645022 L38.2370801,20.4645022 L38.2370801,18.261329 L40.332832,18.261329 C40.3302832,18.2378117 40.3274707,18.2143831 40.324834,18.1908658 L38.2370801,18.1908658 L38.2370801,15.9975433 L39.9600879,15.9975433 C39.9549023,15.9741147 39.9501562,15.9505087 39.9448828,15.9270801 L38.2370801,15.9270801 L38.2370801,13.7236407 L39.3127734,13.7236407 C39.3045996,13.7001234 39.2964258,13.6766948 39.2881641,13.6531775 L38.2370801,13.6531775 L38.2370801,11.459855 L38.3683887,11.459855 C38.356875,11.4363377 38.3452734,11.4129091 38.3337598,11.3893918 L38.237168,11.3893918 L38.237168,11.1935325 C38.2144043,11.1487165 38.190498,11.1046104 38.1673828,11.0600606 L38.1673828,11.3893918 L35.995166,11.3893918 L35.995166,9.18648485 L37.0688379,9.18648485 C37.0533691,9.16305628 37.0384277,9.13936147 37.022959,9.11602165 L35.995166,9.11602165 L35.995166,7.70862121 C35.971875,7.67942424 35.9488477,7.65022727 35.9253809,7.62111905 L35.9253809,9.1159329 L33.7434082,9.1159329 L33.7434082,6.92261039 L35.33625,6.92261039 C35.3155078,6.89918182 35.2952051,6.87557576 35.274375,6.85214719 L33.7434082,6.85214719 L33.7434082,5.30657143 C33.720293,5.28553896 33.6969141,5.26495022 33.673623,5.24409524 L33.673623,6.85241342 L31.5014062,6.85241342 L31.5014062,4.64888528 L32.9814844,4.64888528 C32.9526562,4.62527922 32.9237402,4.60193939 32.8948242,4.57842208 L31.5013184,4.57842208 L31.5013184,3.54099784 C31.4782031,3.52529004 31.4547363,3.51020346 31.4315332,3.49467316 L31.4315332,4.57851082 L29.2492969,4.57851082 L29.2492969,2.38509957 L29.575459,2.38509957 C29.5313379,2.36175974 29.4875684,2.33770996 29.4432715,2.31463636 L29.2492969,2.31463636 L29.2492969,2.21710606 C29.2260059,2.20539177 29.2028906,2.19367749 29.1795117,2.18214069 L29.1795117,2.31472511 L27.0075586,2.31472511 L27.0075586,1.25351732 C26.9842676,1.24517532 26.9610645,1.23692208 26.9377734,1.22866883 L26.9377734,2.31463636 L24.7558008,2.31463636 L24.7558008,0.590595238 C24.7325977,0.585270563 24.7093066,0.580478355 24.6860156,0.575242424 L24.6860156,2.31472511 L22.5140625,2.31472511 L22.5140625,0.206952381 C22.4907715,0.204290043 22.4676562,0.201450216 22.4442773,0.198876623 L22.4442773,2.31472511 L20.262041,2.31472511 L20.262041,0.111463203 L21.4030371,0.111463203 C21.0137695,0.0889220779 20.6219531,0.0763203463 20.2271484,0.0763203463 C19.8323437,0.0763203463 19.4405273,0.0890108225 19.0512598,0.111463203 L20.1922559,0.111463203 L20.1922559,2.31463636 L18.0102832,2.31463636 L18.0102832,0.198876623 C17.9869922,0.201450216 17.9637891,0.204290043 17.940498,0.206952381 L17.940498,2.31472511 L15.7680176,2.31472511 L15.7680176,0.575331169 C15.7448145,0.5805671 15.7214355,0.585359307 15.6982324,0.590683983 L15.6982324,2.31472511 L13.5165234,2.31472511 L13.5165234,1.22875758 C13.4932324,1.23701082 13.4700293,1.24526407 13.4467383,1.25360606 L13.4467383,2.31472511 L11.2742578,2.31472511 L11.2742578,2.18240693 C11.2509668,2.19403247 11.2277637,2.20574675 11.2044727,2.21737229 L11.2044727,2.31463636 L11.0110254,2.31463636 C10.9667285,2.33762121 10.922959,2.36175974 10.8788379,2.38509957 L11.2044727,2.38509957 L11.2044727,4.57842208 L9.0225,4.57842208 L9.0225,3.49485065 C8.99929687,3.5104697 8.97583008,3.52555628 8.95271484,3.54117532 L8.95271484,4.57851082 L7.55973633,4.57851082 C7.53082031,4.60202814 7.5019043,4.62527922 7.47307617,4.64897403 L8.95289062,4.64897403 L8.95289062,6.85241342 L6.78067383,6.85241342 L6.78067383,5.24436147 C6.7574707,5.26530519 6.7340918,5.28580519 6.71088867,5.30683766 L6.71088867,6.85241342 L5.18027344,6.85241342 C5.15944336,6.87575325 5.13905273,6.89935931 5.11839844,6.92287662 L6.71097656,6.92287662 L6.71097656,9.11619913 L4.52891602,9.11619913 L4.52891602,7.62174026 C4.50544922,7.65084848 4.48242187,7.68004545 4.45913086,7.70924242 L4.45913086,9.11628788 L3.43168945,9.11628788 C3.41613281,9.13962771 3.40119141,9.16332251 3.38581055,9.18675108 L4.45921875,9.18675108 L4.45921875,11.389658 L2.28726562,11.389658 L2.28726562,11.0603268 C2.26415039,11.1048766 2.24033203,11.1490714 2.21748047,11.1937987 L2.21748047,11.389658 L2.12080078,11.389658 C2.10919922,11.4131753 2.09759766,11.4365152 2.08617187,11.4601212 L2.21748047,11.4601212 L2.21748047,13.6534437 L1.16630859,13.6534437 C1.15804687,13.676961 1.14987305,13.7003896 1.14169922,13.7239069 L2.21748047,13.7239069 L2.21748047,15.9273463 L0.509677734,15.9273463 C0.504404297,15.9507749 0.499658203,15.9742922 0.494472656,15.9978095 L2.21748047,15.9978095 L2.21748047,18.191132 L0.129726562,18.191132 C0.127089844,18.2146494 0.124277344,18.2379892 0.121728516,18.2615952 L2.21748047,18.2615952 L2.21748047,20.4647684 L0.03515625,20.4647684 L0.03515625,19.3126861 C0.0128320312,19.7057359 0.0003515625,20.1013593 0.0003515625,20.5 C0.0003515625,20.8988182 0.0128320312,21.2941753 0.03515625,21.6872251 Z M2.28726562,20.5350541 L4.45921875,20.5350541 L4.45921875,22.7382273 L2.28726562,22.7382273 L2.28726562,20.5350541 Z M9.02267578,25.0725649 L11.2046484,25.0725649 L11.2046484,27.2760043 L9.02267578,27.2760043 L9.02267578,25.0725649 L9.02267578,25.0725649 Z M8.95297852,27.2760043 L6.78067383,27.2760043 L6.78067383,25.0725649 L8.95289062,25.0725649 L8.95289062,27.2760043 L8.95297852,27.2760043 Z M20.1925195,22.8087792 L20.1925195,25.0021017 L18.0105469,25.0021017 L18.0105469,22.8087792 L20.1925195,22.8087792 Z M18.010459,22.738316 L18.010459,20.5351429 L20.1924316,20.5351429 L20.1924316,22.738316 L18.010459,22.738316 Z M20.2623047,22.8087792 L22.444541,22.8087792 L22.444541,25.0021017 L20.2623047,25.0021017 L20.2623047,22.8087792 Z M20.2623047,22.738316 L20.2623047,20.5351429 L22.444541,20.5351429 L22.444541,22.738316 L20.2623047,22.738316 Z M22.5143262,20.5350541 L24.6862793,20.5350541 L24.6862793,22.7382273 L22.5143262,22.7382273 L22.5143262,20.5350541 Z M22.5143262,20.4646797 L22.5143262,18.2615065 L24.6862793,18.2615065 L24.6862793,20.4646797 L22.5143262,20.4646797 Z M22.4446289,20.4646797 L20.2623926,20.4646797 L20.2623926,18.2615065 L22.4446289,18.2615065 L22.4446289,20.4646797 Z M20.2623047,18.1910433 L20.2623047,15.9977208 L22.444541,15.9977208 L22.444541,18.1910433 L20.2623047,18.1910433 Z M20.1925195,18.1910433 L18.0105469,18.1910433 L18.0105469,15.9977208 L20.1925195,15.9977208 L20.1925195,18.1910433 L20.1925195,18.1910433 Z M20.1925195,18.2614177 L20.1925195,20.4645909 L18.0105469,20.4645909 L18.0105469,18.2614177 L20.1925195,18.2614177 Z M17.9407617,20.4646797 L15.7682813,20.4646797 L15.7682813,18.2615065 L17.9407617,18.2615065 L17.9407617,20.4646797 Z M17.9407617,20.5350541 L17.9407617,22.7382273 L15.7682813,22.7382273 L15.7682813,20.5350541 L17.9407617,20.5350541 Z M15.6984961,22.738316 L13.5167871,22.738316 L13.5167871,20.5351429 L15.6984961,20.5351429 L15.6984961,22.738316 Z M15.6984961,22.8087792 L15.6984961,25.0021017 L13.5167871,25.0021017 L13.5167871,22.8087792 L15.6984961,22.8087792 Z M15.7681934,22.8087792 L17.9406738,22.8087792 L17.9406738,25.0021017 L15.7681934,25.0021017 L15.7681934,22.8087792 Z M17.9407617,25.0725649 L17.9407617,27.2760043 L15.7682813,27.2760043 L15.7682813,25.0725649 L17.9407617,25.0725649 Z M18.010459,25.0725649 L20.1924316,25.0725649 L20.1924316,27.2760043 L18.010459,27.2760043 L18.010459,25.0725649 Z M20.1925195,27.3464675 L20.1925195,29.53979 L18.0105469,29.53979 L18.0105469,27.3464675 L20.1925195,27.3464675 Z M20.2623047,27.3464675 L22.444541,27.3464675 L22.444541,29.53979 L20.2623047,29.53979 L20.2623047,27.3464675 Z M20.2623047,27.2760043 L20.2623047,25.0725649 L22.444541,25.0725649 L22.444541,27.2760043 L20.2623047,27.2760043 Z M22.5143262,25.0725649 L24.6862793,25.0725649 L24.6862793,27.2760043 L22.5143262,27.2760043 L22.5143262,25.0725649 Z M22.5143262,25.0021017 L22.5143262,22.8087792 L24.6862793,22.8087792 L24.6862793,25.0021017 L22.5143262,25.0021017 Z M24.7560645,22.8087792 L26.9380371,22.8087792 L26.9380371,25.0021017 L24.7560645,25.0021017 L24.7560645,22.8087792 Z M24.7560645,22.738316 L24.7560645,20.5351429 L26.9380371,20.5351429 L26.9380371,22.738316 L24.7560645,22.738316 Z M27.0078223,20.5350541 L29.1797754,20.5350541 L29.1797754,22.7382273 L27.0078223,22.7382273 L27.0078223,20.5350541 Z M27.0078223,20.4646797 L27.0078223,18.2615065 L29.1797754,18.2615065 L29.1797754,20.4646797 L27.0078223,20.4646797 Z M26.9380371,20.4646797 L24.7560645,20.4646797 L24.7560645,18.2615065 L26.9380371,18.2615065 L26.9380371,20.4646797 Z M24.7560645,18.1910433 L24.7560645,15.9977208 L26.9380371,15.9977208 L26.9380371,18.1910433 L24.7560645,18.1910433 Z M24.6862793,18.1910433 L22.5143262,18.1910433 L22.5143262,15.9977208 L24.6862793,15.9977208 L24.6862793,18.1910433 Z M22.5143262,15.9272576 L22.5143262,13.7238182 L24.6862793,13.7238182 L24.6862793,15.9272576 L22.5143262,15.9272576 Z M22.4446289,15.9272576 L20.2623926,15.9272576 L20.2623926,13.7238182 L22.4446289,13.7238182 L22.4446289,15.9272576 Z M20.2623047,13.653355 L20.2623047,11.4600325 L22.444541,11.4600325 L22.444541,13.653355 L20.2623047,13.653355 Z M20.1925195,13.653355 L18.0105469,13.653355 L18.0105469,11.4600325 L20.1925195,11.4600325 L20.1925195,13.653355 L20.1925195,13.653355 Z M20.1925195,13.7238182 L20.1925195,15.9272576 L18.0105469,15.9272576 L18.0105469,13.7238182 L20.1925195,13.7238182 Z M17.9407617,15.9272576 L15.7682813,15.9272576 L15.7682813,13.7238182 L17.9407617,13.7238182 L17.9407617,15.9272576 Z M17.9407617,15.9977208 L17.9407617,18.1910433 L15.7682813,18.1910433 L15.7682813,15.9977208 L17.9407617,15.9977208 Z M15.6984961,18.1910433 L13.5167871,18.1910433 L13.5167871,15.9977208 L15.6984961,15.9977208 L15.6984961,18.1910433 Z M15.6984961,18.2614177 L15.6984961,20.4645909 L13.5167871,20.4645909 L13.5167871,18.2614177 L15.6984961,18.2614177 Z M13.447002,20.4646797 L11.2745215,20.4646797 L11.2745215,18.2615065 L13.447002,18.2615065 L13.447002,20.4646797 Z M13.447002,20.5350541 L13.447002,22.7382273 L11.2745215,22.7382273 L11.2745215,20.5350541 L13.447002,20.5350541 Z M13.447002,22.8087792 L13.447002,25.0021017 L11.2745215,25.0021017 L11.2745215,22.8087792 L13.447002,22.8087792 Z M13.447002,25.0725649 L13.447002,27.2760043 L11.2745215,27.2760043 L11.2745215,25.0725649 L13.447002,25.0725649 Z M13.5167871,25.0725649 L15.6984961,25.0725649 L15.6984961,27.2760043 L13.5167871,27.2760043 L13.5167871,25.0725649 Z M15.6984961,27.3464675 L15.6984961,29.53979 L13.5167871,29.53979 L13.5167871,27.3464675 L15.6984961,27.3464675 Z M15.7681934,27.3464675 L17.9406738,27.3464675 L17.9406738,29.53979 L15.7681934,29.53979 L15.7681934,27.3464675 Z M17.9407617,29.6102532 L17.9407617,31.8131602 L15.7682813,31.8131602 L15.7682813,29.6102532 L17.9407617,29.6102532 Z M18.010459,29.6102532 L20.1924316,29.6102532 L20.1924316,31.8131602 L18.010459,31.8131602 L18.010459,29.6102532 Z M20.2623047,29.6102532 L22.444541,29.6102532 L22.444541,31.8131602 L20.2623047,31.8131602 L20.2623047,29.6102532 Z M22.5143262,29.6102532 L24.6862793,29.6102532 L24.6862793,31.8131602 L22.5143262,31.8131602 L22.5143262,29.6102532 Z M22.5143262,29.53979 L22.5143262,27.3464675 L24.6862793,27.3464675 L24.6862793,29.53979 L22.5143262,29.53979 Z M24.7560645,27.3464675 L26.9380371,27.3464675 L26.9380371,29.53979 L24.7560645,29.53979 L24.7560645,27.3464675 Z M24.7560645,27.2760043 L24.7560645,25.0725649 L26.9380371,25.0725649 L26.9380371,27.2760043 L24.7560645,27.2760043 Z M27.0078223,25.0725649 L29.1797754,25.0725649 L29.1797754,27.2760043 L27.0078223,27.2760043 L27.0078223,25.0725649 Z M27.0078223,25.0021017 L27.0078223,22.8087792 L29.1797754,22.8087792 L29.1797754,25.0021017 L27.0078223,25.0021017 Z M29.2495605,22.8087792 L31.4317969,22.8087792 L31.4317969,25.0021017 L29.2495605,25.0021017 L29.2495605,22.8087792 Z M29.2495605,22.738316 L29.2495605,20.5351429 L31.4317969,20.5351429 L31.4317969,22.738316 L29.2495605,22.738316 Z M29.2495605,20.4646797 L29.2495605,18.2615065 L31.4317969,18.2615065 L31.4317969,20.4646797 L29.2495605,20.4646797 Z M29.2495605,18.1910433 L29.2495605,15.9977208 L31.4317969,15.9977208 L31.4317969,18.1910433 L29.2495605,18.1910433 Z M29.1797754,18.1910433 L27.0078223,18.1910433 L27.0078223,15.9977208 L29.1797754,15.9977208 L29.1797754,18.1910433 Z M27.0078223,15.9272576 L27.0078223,13.7238182 L29.1797754,13.7238182 L29.1797754,15.9272576 L27.0078223,15.9272576 Z M26.9380371,15.9272576 L24.7560645,15.9272576 L24.7560645,13.7238182 L26.9380371,13.7238182 L26.9380371,15.9272576 Z M24.7560645,13.653355 L24.7560645,11.4600325 L26.9380371,11.4600325 L26.9380371,13.653355 L24.7560645,13.653355 Z M24.6862793,13.653355 L22.5143262,13.653355 L22.5143262,11.4600325 L24.6862793,11.4600325 L24.6862793,13.653355 Z M22.5143262,11.3894805 L22.5143262,9.18657359 L24.6862793,9.18657359 L24.6862793,11.3894805 L22.5143262,11.3894805 Z M22.4446289,11.3894805 L20.2623926,11.3894805 L20.2623926,9.18657359 L22.4446289,9.18657359 L22.4446289,11.3894805 Z M20.1925195,11.3894805 L18.0105469,11.3894805 L18.0105469,9.18657359 L20.1925195,9.18657359 L20.1925195,11.3894805 L20.1925195,11.3894805 Z M17.9407617,11.3894805 L15.7682813,11.3894805 L15.7682813,9.18657359 L17.9407617,9.18657359 L17.9407617,11.3894805 Z M17.9407617,11.4599437 L17.9407617,13.6532662 L15.7682813,13.6532662 L15.7682813,11.4599437 L17.9407617,11.4599437 Z M15.6984961,13.653355 L13.5167871,13.653355 L13.5167871,11.4600325 L15.6984961,11.4600325 L15.6984961,13.653355 Z M15.6984961,13.7238182 L15.6984961,15.9272576 L13.5167871,15.9272576 L13.5167871,13.7238182 L15.6984961,13.7238182 Z M13.447002,15.9272576 L11.2745215,15.9272576 L11.2745215,13.7238182 L13.447002,13.7238182 L13.447002,15.9272576 Z M13.447002,15.9977208 L13.447002,18.1910433 L11.2745215,18.1910433 L11.2745215,15.9977208 L13.447002,15.9977208 Z M11.2047363,18.1910433 L9.02276367,18.1910433 L9.02276367,15.9977208 L11.2047363,15.9977208 L11.2047363,18.1910433 L11.2047363,18.1910433 Z M11.2047363,18.2614177 L11.2047363,20.4645909 L9.02276367,20.4645909 L9.02276367,18.2614177 L11.2047363,18.2614177 Z M11.2047363,20.5350541 L11.2047363,22.7382273 L9.02276367,22.7382273 L9.02276367,20.5350541 L11.2047363,20.5350541 Z M11.2047363,22.8087792 L11.2047363,25.0021017 L9.02276367,25.0021017 L9.02276367,22.8087792 L11.2047363,22.8087792 Z M11.2047363,27.3464675 L11.2047363,29.53979 L9.02276367,29.53979 L9.02276367,27.3464675 L11.2047363,27.3464675 Z M11.2745215,27.3464675 L13.447002,27.3464675 L13.447002,29.53979 L11.2745215,29.53979 L11.2745215,27.3464675 Z M13.447002,29.6102532 L13.447002,31.8131602 L11.2745215,31.8131602 L11.2745215,29.6102532 L13.447002,29.6102532 Z M13.5167871,29.6102532 L15.6984961,29.6102532 L15.6984961,31.8131602 L13.5167871,31.8131602 L13.5167871,29.6102532 Z M15.6984961,31.8835346 L15.6984961,34.0768571 L13.5167871,34.0768571 L13.5167871,31.8835346 L15.6984961,31.8835346 Z M15.7681934,31.8835346 L17.9406738,31.8835346 L17.9406738,34.0768571 L15.7681934,34.0768571 L15.7681934,31.8835346 Z M18.010459,31.8835346 L20.1924316,31.8835346 L20.1924316,34.0768571 L18.010459,34.0768571 L18.010459,31.8835346 Z M20.2623047,31.8835346 L22.444541,31.8835346 L22.444541,34.0768571 L20.2623047,34.0768571 L20.2623047,31.8835346 Z M22.5143262,31.8835346 L24.6862793,31.8835346 L24.6862793,34.0768571 L22.5143262,34.0768571 L22.5143262,31.8835346 Z M24.7560645,31.8835346 L26.9380371,31.8835346 L26.9380371,34.0768571 L24.7560645,34.0768571 L24.7560645,31.8835346 Z M24.7560645,31.8132489 L24.7560645,29.610342 L26.9380371,29.610342 L26.9380371,31.8132489 L24.7560645,31.8132489 Z M27.0078223,29.6102532 L29.1797754,29.6102532 L29.1797754,31.8131602 L27.0078223,31.8131602 L27.0078223,29.6102532 Z M27.0078223,29.53979 L27.0078223,27.3464675 L29.1797754,27.3464675 L29.1797754,29.53979 L27.0078223,29.53979 Z M29.2495605,27.3464675 L31.4317969,27.3464675 L31.4317969,29.53979 L29.2495605,29.53979 L29.2495605,27.3464675 Z M29.2495605,27.2760043 L29.2495605,25.0725649 L31.4317969,25.0725649 L31.4317969,27.2760043 L29.2495605,27.2760043 Z M31.501582,25.0725649 L33.6737988,25.0725649 L33.6737988,27.2760043 L31.501582,27.2760043 L31.501582,25.0725649 Z M31.501582,25.0021017 L31.501582,22.8087792 L33.6737988,22.8087792 L33.6737988,25.0021017 L31.501582,25.0021017 Z M31.501582,22.738316 L31.501582,20.5351429 L33.6737988,20.5351429 L33.6737988,22.738316 L31.501582,22.738316 Z M31.501582,20.4646797 L31.501582,18.2615065 L33.6737988,18.2615065 L33.6737988,20.4646797 L31.501582,20.4646797 Z M31.501582,18.1910433 L31.501582,15.9977208 L33.6737988,15.9977208 L33.6737988,18.1910433 L31.501582,18.1910433 Z M31.501582,15.9272576 L31.501582,13.7238182 L33.6737988,13.7238182 L33.6737988,15.9272576 L31.501582,15.9272576 Z M31.4318848,15.9272576 L29.2495605,15.9272576 L29.2495605,13.7238182 L31.4317969,13.7238182 L31.4318848,15.9272576 L31.4318848,15.9272576 Z M29.2495605,13.653355 L29.2495605,11.4600325 L31.4317969,11.4600325 L31.4317969,13.653355 L29.2495605,13.653355 Z M29.1797754,13.653355 L27.0078223,13.653355 L27.0078223,11.4600325 L29.1797754,11.4600325 L29.1797754,13.653355 Z M27.0078223,11.3894805 L27.0078223,9.18657359 L29.1797754,9.18657359 L29.1797754,11.3894805 L27.0078223,11.3894805 Z M26.9380371,11.3894805 L24.7560645,11.3894805 L24.7560645,9.18657359 L26.9380371,9.18657359 L26.9380371,11.3894805 Z M24.7560645,9.11611039 L24.7560645,6.92278788 L26.9380371,6.92278788 L26.9380371,9.11611039 L24.7560645,9.11611039 Z M24.6862793,9.11611039 L22.5143262,9.11611039 L22.5143262,6.92278788 L24.6862793,6.92278788 L24.6862793,9.11611039 Z M22.4446289,9.11611039 L20.2623926,9.11611039 L20.2623926,6.92278788 L22.4446289,6.92278788 L22.4446289,9.11611039 Z M20.1925195,9.11611039 L18.0105469,9.11611039 L18.0105469,6.92278788 L20.1925195,6.92278788 L20.1925195,9.11611039 L20.1925195,9.11611039 Z M17.9407617,9.11611039 L15.7682813,9.11611039 L15.7682813,6.92278788 L17.9407617,6.92278788 L17.9407617,9.11611039 Z M15.6984961,9.11611039 L13.5167871,9.11611039 L13.5167871,6.92278788 L15.6984961,6.92278788 L15.6984961,9.11611039 Z M15.6984961,9.18657359 L15.6984961,11.3894805 L13.5167871,11.3894805 L13.5167871,9.18657359 L15.6984961,9.18657359 Z M13.447002,11.3894805 L11.2745215,11.3894805 L11.2745215,9.18657359 L13.447002,9.18657359 L13.447002,11.3894805 Z M13.447002,11.4599437 L13.447002,13.6532662 L11.2745215,13.6532662 L11.2745215,11.4599437 L13.447002,11.4599437 Z M11.2047363,13.653355 L9.02276367,13.653355 L9.02276367,11.4600325 L11.2047363,11.4600325 L11.2047363,13.653355 L11.2047363,13.653355 Z M11.2047363,13.7238182 L11.2047363,15.9272576 L9.02276367,15.9272576 L9.02276367,13.7238182 L11.2047363,13.7238182 Z M8.95297852,15.9272576 L6.78067383,15.9272576 L6.78067383,13.7238182 L8.95289062,13.7238182 L8.95289062,15.9272576 L8.95297852,15.9272576 Z M8.95297852,15.9977208 L8.95297852,18.1910433 L6.78067383,18.1910433 L6.78067383,15.9977208 L8.95297852,15.9977208 Z M8.95297852,18.2614177 L8.95297852,20.4645909 L6.78067383,20.4645909 L6.78067383,18.2614177 L8.95297852,18.2614177 Z M8.95297852,20.5350541 L8.95297852,22.7382273 L6.78067383,22.7382273 L6.78067383,20.5350541 L8.95297852,20.5350541 Z M8.95297852,22.8087792 L8.95297852,25.0021017 L6.78067383,25.0021017 L6.78067383,22.8087792 L8.95297852,22.8087792 Z M6.71088867,25.0021017 L4.52891602,25.0021017 L4.52891602,22.8087792 L6.71088867,22.8087792 L6.71088867,25.0021017 Z M6.71088867,25.0725649 L6.71088867,27.2760043 L4.52891602,27.2760043 L4.52891602,25.0725649 L6.71088867,25.0725649 Z M6.71088867,27.3464675 L6.71088867,29.53979 L4.52891602,29.53979 L4.52891602,27.3464675 L6.71088867,27.3464675 Z M6.78067383,27.3464675 L8.95289062,27.3464675 L8.95289062,29.53979 L6.78067383,29.53979 L6.78067383,27.3464675 Z M8.95297852,29.6102532 L8.95297852,31.8131602 L6.78067383,31.8131602 L6.78067383,29.6102532 L8.95297852,29.6102532 Z M9.02267578,29.6102532 L11.2046484,29.6102532 L11.2046484,31.8131602 L9.02267578,31.8131602 L9.02267578,29.6102532 L9.02267578,29.6102532 Z M11.2047363,31.8835346 L11.2047363,34.0768571 L9.02276367,34.0768571 L9.02276367,31.8835346 L11.2047363,31.8835346 Z M11.2745215,31.8835346 L13.447002,31.8835346 L13.447002,34.0768571 L11.2745215,34.0768571 L11.2745215,31.8835346 Z M13.447002,34.1474091 L13.447002,36.3508485 L11.2745215,36.3508485 L11.2745215,34.1474091 L13.447002,34.1474091 Z M13.5167871,34.1474091 L15.6984961,34.1474091 L15.6984961,36.3508485 L13.5167871,36.3508485 L13.5167871,34.1474091 Z M15.7681934,34.1474091 L17.9406738,34.1474091 L17.9406738,36.3508485 L15.7681934,36.3508485 L15.7681934,34.1474091 Z M18.010459,34.1474091 L20.1924316,34.1474091 L20.1924316,36.3508485 L18.010459,36.3508485 L18.010459,34.1474091 Z M20.2623047,34.1474091 L22.444541,34.1474091 L22.444541,36.3508485 L20.2623047,36.3508485 L20.2623047,34.1474091 Z M22.5143262,34.1474091 L24.6862793,34.1474091 L24.6862793,36.3508485 L22.5143262,36.3508485 L22.5143262,34.1474091 Z M24.7560645,34.1474091 L26.9380371,34.1474091 L26.9380371,36.3508485 L24.7560645,36.3508485 L24.7560645,34.1474091 Z M27.0078223,34.1474091 L29.1797754,34.1474091 L29.1797754,36.3508485 L27.0078223,36.3508485 L27.0078223,34.1474091 Z M27.0078223,34.0769459 L27.0078223,31.8836234 L29.1797754,31.8836234 L29.1797754,34.0769459 L27.0078223,34.0769459 Z M29.2495605,31.8835346 L31.4317969,31.8835346 L31.4317969,34.0768571 L29.2495605,34.0768571 L29.2495605,31.8835346 Z M29.2495605,31.8132489 L29.2495605,29.610342 L31.4317969,29.610342 L31.4317969,31.8132489 L29.2495605,31.8132489 Z M31.501582,29.6102532 L33.6737988,29.6102532 L33.6737988,31.8131602 L31.501582,31.8131602 L31.501582,29.6102532 Z M31.501582,29.53979 L31.501582,27.3464675 L33.6737988,27.3464675 L33.6737988,29.53979 L31.501582,29.53979 Z M33.743584,27.3464675 L35.9255566,27.3464675 L35.9255566,29.53979 L33.743584,29.53979 L33.743584,27.3464675 Z M33.743584,27.2760043 L33.743584,25.0725649 L35.9255566,25.0725649 L35.9255566,27.2760043 L33.743584,27.2760043 Z M33.743584,25.0021017 L33.743584,22.8087792 L35.9255566,22.8087792 L35.9255566,25.0021017 L33.743584,25.0021017 Z M33.743584,22.738316 L33.743584,20.5351429 L35.9255566,20.5351429 L35.9255566,22.738316 L33.743584,22.738316 Z M33.743584,20.4646797 L33.743584,18.2615065 L35.9255566,18.2615065 L35.9255566,20.4646797 L33.743584,20.4646797 Z M33.743584,18.1910433 L33.743584,15.9977208 L35.9255566,15.9977208 L35.9255566,18.1910433 L33.743584,18.1910433 Z M33.743584,15.9272576 L33.743584,13.7238182 L35.9255566,13.7238182 L35.9255566,15.9272576 L33.743584,15.9272576 Z M33.743584,13.653355 L33.743584,11.4600325 L35.9255566,11.4600325 L35.9255566,13.653355 L33.743584,13.653355 Z M33.6737988,13.653355 L31.501582,13.653355 L31.501582,11.4600325 L33.6737988,11.4600325 L33.6737988,13.653355 Z M31.501582,11.3894805 L31.501582,9.18657359 L33.6737988,9.18657359 L33.6737988,11.3894805 L31.501582,11.3894805 Z M31.4318848,11.3894805 L29.2495605,11.3894805 L29.2495605,9.18657359 L31.4317969,9.18657359 L31.4318848,11.3894805 L31.4318848,11.3894805 Z M29.2495605,9.11611039 L29.2495605,6.92278788 L31.4317969,6.92278788 L31.4317969,9.11611039 L29.2495605,9.11611039 Z M29.1797754,9.11611039 L27.0078223,9.11611039 L27.0078223,6.92278788 L29.1797754,6.92278788 L29.1797754,9.11611039 Z M27.0078223,6.85241342 L27.0078223,4.64888528 L29.1797754,4.64888528 L29.1797754,6.85232468 L27.0078223,6.85241342 L27.0078223,6.85241342 Z M26.9380371,6.85241342 L24.7560645,6.85241342 L24.7560645,4.64888528 L26.9380371,4.64888528 L26.9380371,6.85241342 Z M24.6862793,6.85241342 L22.5143262,6.85241342 L22.5143262,4.64888528 L24.6862793,4.64888528 L24.6862793,6.85241342 Z M22.4446289,6.85241342 L20.2623926,6.85241342 L20.2623926,4.64888528 L22.4446289,4.64888528 L22.4446289,6.85241342 Z M20.1925195,6.85241342 L18.0105469,6.85241342 L18.0105469,4.64888528 L20.1925195,4.64888528 L20.1925195,6.85241342 L20.1925195,6.85241342 Z M17.9407617,6.85241342 L15.7682813,6.85241342 L15.7682813,4.64888528 L17.9407617,4.64888528 L17.9407617,6.85241342 Z M15.6984961,6.85241342 L13.5167871,6.85241342 L13.5167871,4.64888528 L15.6984961,4.64888528 L15.6984961,6.85241342 Z M13.447002,6.85241342 L11.2745215,6.85241342 L11.2745215,4.64888528 L13.447002,4.64888528 L13.447002,6.85241342 Z M13.447002,6.92278788 L13.447002,9.11611039 L11.2745215,9.11611039 L11.2745215,6.92278788 L13.447002,6.92278788 Z M11.2047363,9.11611039 L9.02276367,9.11611039 L9.02276367,6.92278788 L11.2047363,6.92278788 L11.2047363,9.11611039 L11.2047363,9.11611039 Z M11.2047363,9.18657359 L11.2047363,11.3894805 L9.02276367,11.3894805 L9.02276367,9.18657359 L11.2047363,9.18657359 Z M8.95297852,11.3894805 L6.78067383,11.3894805 L6.78067383,9.18657359 L8.95289062,9.18657359 L8.95289062,11.3894805 L8.95297852,11.3894805 Z M8.95297852,11.4599437 L8.95297852,13.6532662 L6.78067383,13.6532662 L6.78067383,11.4599437 L8.95297852,11.4599437 Z M6.71088867,13.653355 L4.52891602,13.653355 L4.52891602,11.4600325 L6.71088867,11.4600325 C6.71088867,11.4599437 6.71088867,13.653355 6.71088867,13.653355 Z M6.71088867,13.7238182 L6.71088867,15.9272576 L4.52891602,15.9272576 L4.52891602,13.7238182 L6.71088867,13.7238182 Z M6.71088867,15.9977208 L6.71088867,18.1910433 L4.52891602,18.1910433 L4.52891602,15.9977208 L6.71088867,15.9977208 Z M6.71088867,18.2614177 L6.71088867,20.4645909 L4.52891602,20.4645909 L4.52891602,18.2614177 L6.71088867,18.2614177 Z M6.71088867,20.5350541 L6.71088867,22.7382273 L4.52891602,22.7382273 L4.52891602,20.5350541 L6.71088867,20.5350541 Z M2.28726562,22.8087792 L4.45921875,22.8087792 L4.45921875,25.0021017 L2.28726562,25.0021017 L2.28726562,22.8087792 Z M2.28726562,25.0725649 L4.45921875,25.0725649 L4.45921875,27.2760043 L2.28726562,27.2760043 L2.28726562,25.0725649 Z M2.28726562,29.53979 L2.28726562,27.3464675 L4.45921875,27.3464675 L4.45921875,29.53979 L2.28726562,29.53979 Z M4.52891602,31.8132489 L4.52891602,29.610342 L6.71088867,29.610342 L6.71088867,31.8132489 L4.52891602,31.8132489 Z M6.78067383,34.0769459 L6.78067383,31.8836234 L8.95289062,31.8836234 L8.95289062,34.0769459 L6.78067383,34.0769459 Z M9.02267578,36.3508485 L9.02267578,34.1474091 L11.2046484,34.1474091 L11.2046484,36.3508485 L9.02267578,36.3508485 Z M11.2745215,38.6146342 L11.2745215,36.4213117 L13.447002,36.4213117 L13.447002,38.6146342 L11.2745215,38.6146342 Z M13.5167871,38.6146342 L13.5167871,36.4213117 L15.6984961,36.4213117 L15.6984961,38.6146342 L13.5167871,38.6146342 Z M15.7681934,38.6146342 L15.7681934,36.4213117 L17.9406738,36.4213117 L17.9406738,38.6146342 L15.7681934,38.6146342 Z M18.010459,38.6146342 L18.010459,36.4213117 L20.1924316,36.4213117 L20.1924316,38.6146342 L18.010459,38.6146342 Z M20.2623047,38.6146342 L20.2623047,36.4213117 L22.444541,36.4213117 L22.444541,38.6146342 L20.2623047,38.6146342 Z M22.5143262,38.6146342 L22.5143262,36.4213117 L24.6862793,36.4213117 L24.6862793,38.6146342 L22.5143262,38.6146342 Z M24.7560645,38.6146342 L24.7560645,36.4213117 L26.9380371,36.4213117 L26.9380371,38.6146342 L24.7560645,38.6146342 Z M29.1797754,38.6146342 L27.0078223,38.6146342 L27.0078223,36.4213117 L29.1797754,36.4213117 L29.1797754,38.6146342 Z M31.4318848,36.3508485 L29.2495605,36.3508485 L29.2495605,34.1474091 L31.4317969,34.1474091 L31.4318848,36.3508485 L31.4318848,36.3508485 Z M33.6737988,34.0769459 L31.501582,34.0769459 L31.501582,31.8836234 L33.6737988,31.8836234 L33.6737988,34.0769459 Z M35.9255566,31.8132489 L33.743584,31.8132489 L33.743584,29.610342 L35.9255566,29.610342 L35.9255566,31.8132489 Z M38.1676465,29.53979 L35.9954297,29.53979 L35.9954297,27.3464675 L38.1676465,27.3464675 L38.1676465,29.53979 Z M38.1676465,27.2760043 L35.9954297,27.2760043 L35.9954297,25.0725649 L38.1676465,25.0725649 L38.1676465,27.2760043 Z M38.1676465,25.0021017 L35.9954297,25.0021017 L35.9954297,22.8087792 L38.1676465,22.8087792 L38.1676465,25.0021017 Z M38.1676465,22.738316 L35.9954297,22.738316 L35.9954297,20.5351429 L38.1676465,20.5351429 L38.1676465,22.738316 Z M38.1676465,20.4646797 L35.9954297,20.4646797 L35.9954297,18.2615065 L38.1676465,18.2615065 L38.1676465,20.4646797 Z M38.1676465,18.1910433 L35.9954297,18.1910433 L35.9954297,15.9977208 L38.1676465,15.9977208 L38.1676465,18.1910433 Z M38.1676465,15.9272576 L35.9954297,15.9272576 L35.9954297,13.7238182 L38.1676465,13.7238182 L38.1676465,15.9272576 Z M38.1676465,11.4599437 L38.1676465,13.6532662 L35.9954297,13.6532662 L35.9954297,11.4599437 L38.1676465,11.4599437 Z M35.9255566,9.18657359 L35.9255566,11.3894805 L33.743584,11.3894805 L33.743584,9.18657359 L35.9255566,9.18657359 Z M33.6737988,6.92278788 L33.6737988,9.11611039 L31.501582,9.11611039 L31.501582,6.92278788 L33.6737988,6.92278788 Z M31.4318848,4.64888528 L31.4318848,6.85232468 L29.2495605,6.85232468 L29.2495605,4.64888528 L31.4318848,4.64888528 Z M29.1797754,2.38509957 L29.1797754,4.57842208 L27.0078223,4.57842208 L27.0078223,2.38509957 L29.1797754,2.38509957 Z M26.9380371,2.38509957 L26.9380371,4.57842208 L24.7560645,4.57842208 L24.7560645,2.38509957 L26.9380371,2.38509957 Z M24.6862793,2.38509957 L24.6862793,4.57842208 L22.5143262,4.57842208 L22.5143262,2.38509957 L24.6862793,2.38509957 Z M22.4446289,2.38509957 L22.4446289,4.57842208 L20.2623926,4.57842208 L20.2623926,2.38509957 L22.4446289,2.38509957 Z M20.1925195,2.38509957 L20.1925195,4.57842208 L18.0105469,4.57842208 L18.0105469,2.38509957 L20.1925195,2.38509957 Z M17.9407617,2.38509957 L17.9407617,4.57842208 L15.7682813,4.57842208 L15.7682813,2.38509957 L17.9407617,2.38509957 Z M15.6984961,2.38509957 L15.6984961,4.57842208 L13.5167871,4.57842208 L13.5167871,2.38509957 L15.6984961,2.38509957 Z M11.2745215,2.38509957 L13.447002,2.38509957 L13.447002,4.57842208 L11.2745215,4.57842208 L11.2745215,2.38509957 Z M9.02267578,4.64888528 L11.2046484,4.64888528 L11.2046484,6.85232468 L9.02267578,6.85232468 L9.02267578,4.64888528 L9.02267578,4.64888528 Z M6.78067383,6.92278788 L8.95289062,6.92278788 L8.95289062,9.11611039 L6.78067383,9.11611039 L6.78067383,6.92278788 Z M4.52891602,9.18657359 L6.71088867,9.18657359 L6.71088867,11.3894805 L4.52891602,11.3894805 L4.52891602,9.18657359 Z M2.28726562,11.4599437 L4.45921875,11.4599437 L4.45921875,13.6532662 L2.28726562,13.6532662 L2.28726562,11.4599437 Z M2.28726562,13.7238182 L4.45921875,13.7238182 L4.45921875,15.9272576 L2.28726562,15.9272576 L2.28726562,13.7238182 Z M2.28726562,15.9977208 L4.45921875,15.9977208 L4.45921875,18.1910433 L2.28726562,18.1910433 L2.28726562,15.9977208 Z M2.28726562,18.2614177 L4.45921875,18.2614177 L4.45921875,20.4645909 L2.28726562,20.4645909 L2.28726562,18.2614177 Z" id="Shape" fill="#FFB733" opacity="0.119999997"></path>
                    <path d="M39.6557227,14.8203463 C39.5502539,14.4513463 39.4358203,14.0867835 39.3105762,13.7267468 L35.7938086,19.9425952 L31.3075195,17.6725974 L24.6381152,28.8929307 L20.3097656,24.5234134 L15.815918,26.7868442 L8.98699219,19.9022165 L4.48962891,24.4438095 L0.0114257812,20.04829 C0.0080859375,20.1990671 0,20.3486017 0,20.5001775 C0,20.746355 0.00975585938,20.9900476 0.0184570312,21.2340065 L4.49833008,25.6308571 L8.98795898,21.0973398 L15.6509473,27.8148615 L20.1444434,25.551342 L24.8042285,30.2561364 L31.6258594,18.7794199 L36.1274414,21.056961 L39.6557227,14.8203463 Z" id="Shape" fill="#FFFFFF"></path>
                    <path d="M44.9851465,10.1649827 L43.9578809,6.3639632 L43.5549902,6.47524892 C43.5544629,6.47524892 43.5538477,6.47551515 43.5533203,6.47578139 L40.1933496,7.40112121 C39.970459,7.4627987 39.8387988,7.6948658 39.8996191,7.92001082 C39.9604395,8.14533333 40.1897461,8.27800649 40.4137793,8.21659524 L42.8000098,7.55908658 L39.3106641,13.727013 C39.4359082,14.0866948 39.5503418,14.4516126 39.6558105,14.8206126 L43.5265137,7.97858225 L44.1774316,10.3879978 C44.2284961,10.5758701 44.3970703,10.6993139 44.5808496,10.6993139 C44.6173242,10.6993139 44.654502,10.6942554 44.6913281,10.6844048 C44.9144824,10.622816 45.0458789,10.3903052 44.9851465,10.1649827 Z" id="Shape" fill="#4BE4C5"></path>
                    <ellipse id="Oval" fill="#E74C3C" cx="24.7207324" cy="29.5748442" rx="1.49994141" ry="1.51451515"></ellipse>
                    <ellipse id="Oval" fill="#FFFFFF" cx="24.7216113" cy="29.5748442" rx="0.779238281" ry="0.786809524"></ellipse>
                    <ellipse id="Oval" fill="#242D3C" cx="8.98743164" cy="20.5000887" rx="1.49994141" ry="1.51451515"></ellipse>
                    <ellipse id="Oval" fill="#FFFFFF" cx="8.98743164" cy="20.5000887" rx="0.779238281" ry="0.786809524"></ellipse>
                </g>
            </g>
        </g>
    </g>
</svg>